# xmcd
#
# Track frame offsets:
#	150
#	68711
#	119939
#	133931
#
# Disc length: 1999 seconds
#
# Revision: 1
# Processed by: cddbd v1.5.2PL0 Copyright (c) Steve Scherf et al.
# Submitted via: audiograbber 1.83.01
#
DISCID=3f07cd04
DTITLE=Grateful Dead - 72-12-11 Winterland Arena, San Francisco CA
DYEAR=1900
DGENRE=
TTITLE0=Playing In The Band
TTITLE1=Mississippi Half-Step
TTITLE2=Me and My Uncle
TTITLE3=Big Railroad Blues
EXTD=
EXTT0=
EXTT1=
EXTT2=
EXTT3=
PLAYORDER=
